<svg id="line" height="512" viewBox="0 0 64 64" width="512" xmlns="http://www.w3.org/2000/svg"><g fill="#c4a2fc"><circle cx="45" cy="30.472" r="11"/><path d="m14.039 54.609a4.83 4.83 0 1 0 6.824 6.824l9.442-10.3-5.965-5.966z"/><path d="m45 13.472a16.979 16.979 0 0 0 -13.942 26.7l-1.792 1.792a1.984 1.984 0 0 0 -1.911.439l-1.54 1.411 5.843 5.843 1.412-1.54a1.993 1.993 0 0 0 .438-1.91l1.792-1.793a16.993 16.993 0 1 0 9.7-30.942zm-12.728 31.142-1.414-1.414 1.453-1.454a17.176 17.176 0 0 0 1.415 1.415zm12.728-1.142a13 13 0 1 1 13-13 13.015 13.015 0 0 1 -13 13z"/></g><path d="m41 25h-5v-21a3 3 0 0 0 -3-3h-28a3 3 0 0 0 -3 3v34a5.006 5.006 0 0 0 5 5h32a5.006 5.006 0 0 0 5-5v-10a3 3 0 0 0 -3-3zm-37 13v-34a1 1 0 0 1 1-1h28a1 1 0 0 1 1 1v34a4.948 4.948 0 0 0 1.026 3h-28.026a3 3 0 0 1 -3-3zm38 0a3 3 0 0 1 -6 0v-11h5a1 1 0 0 1 1 1z" fill="#151a6a"/><path d="m19 11a11 11 0 1 0 11 11 11.013 11.013 0 0 0 -11-11zm8.941 10h-7.941v-7.941a9.013 9.013 0 0 1 7.941 7.941zm-8.941 10a9 9 0 0 1 -1-17.941v8.941a1 1 0 0 0 1 1h8.941a9.011 9.011 0 0 1 -8.941 8z" fill="#151a6a"/></svg>